<svg width="500" height="300" viewBox="0 0 500 300">
  <style>
    .state {
      fill: #f0f0f0;
      stroke: #ccc;
      stroke-width: 2;
      border-radius: 10px;
      text-align: center;
      font-family: sans-serif;
      font-size: 14px;
    }

    .transition {
      stroke: #000;
      stroke-width: 2;
      marker-end: url(#arrow);
    }

    .label {
      font-family: sans-serif;
      font-size: 12px;
      text-anchor: middle;
    }
  </style>

  <defs>
    <marker id="arrow" viewBox="0 0 10 10" refX="10" refY="5" markerWidth="6" markerHeight="6" orient="auto">
      <path d="M 0 0 L 10 5 L 0 10 z" fill="#000" />
    </marker>
  </defs>

  <g transform="translate(50, 50)">
    <rect class="state" x="0" y="0" width="100" height="50">
      <text x="50" y="30" dominant-baseline="middle">INITIALIZING</text>
    </rect>

    <rect class="state" x="200" y="0" width="100" height="50">
      <text x="250" y="30" dominant-baseline="middle">CAPTURING</text>
    </rect>

    <rect class="state" x="200" y="100" width="100" height="50">
      <text x="250" y="130" dominant-baseline="middle">PROCESSING</text>
    </rect>

    <rect class="state" x="0" y="100" width="100" height="50">
      <text x="50" y="130" dominant-baseline="middle">LOGGING</text>
    </rect>

    <rect class="state" x="0" y="200" width="100" height="50">
      <text x="50" y="230" dominant-baseline="middle">DISPLAYING</text>
    </rect>

    <path class="transition" d="M 100 25 L 150 25" />
    <text class="label" x="125" y="10">Start Camera</text>

    <path class="transition" d="M 200 25 L 200 75" />
    <text class="label" x="225" y="50" transform="rotate(90 225 50)">Capture Frame</text>

    <path class="transition" d="M 200 75 L 200 125" />
    <text class="label" x="225" y="100" transform="rotate(90 225 100)">Process Frame</text>

    <path class="transition" d="M 200 125 L 150 125" />
    <text class="label" x="175" y="135">Log Attendance</text>

    <path class="transition" d="M 100 125 L 100 175" />
    <text class="label" x="75" y="150" transform="rotate(90 75 150)">Display Frame</text>

    <path class="transition" d="M 100 175 L 150 175" />
    <text class="label" x="125" y="185">Show Annotations</text>

    <path class="transition" d="M 100 225 L 150 225" />
    <text class="label" x="125" y="235">Continue</text>

    <path class="transition" d="M 150 225 L 200 225" />
    <text class="label" x="175" y="235">Capture Next Frame</text>
  </g>
</svg>